<svg width="424" height="102" viewBox="0 0 424 102" fill="none" xmlns="http://www.w3.org/2000/svg">
<path fill-rule="evenodd" clip-rule="evenodd" d="M0 33.25C0 14.8865 14.8865 0 33.25 0H68.5C86.8635 0 101.75 14.8865 101.75 33.25V71.5C101.75 73.1569 100.407 74.5 98.75 74.5H90.75C89.0931 74.5 87.75 73.1569 87.75 71.5V33.25C87.75 22.6185 79.1315 14 68.5 14H33.25C22.6185 14 14 22.6185 14 33.25V68.5C14 79.1315 22.6185 87.75 33.25 87.75H47.875C49.5319 87.75 50.875 89.0931 50.875 90.75V98.75C50.875 100.407 49.5319 101.75 47.875 101.75H33.25C14.8865 101.75 0 86.8635 0 68.5V33.25Z" fill="white"/>
<path fill-rule="evenodd" clip-rule="evenodd" d="M64.5 70.75C64.5 64.4553 60.1106 59.1859 54.2257 57.8355C52.6108 57.4649 51.25 56.1569 51.25 54.5V46.5C51.25 44.8431 52.5982 43.4827 54.2452 43.6627C67.8857 45.1541 78.5 56.7125 78.5 70.75V86.2802C78.5 86.9539 79.0461 87.5 79.7198 87.5H105.5C107.157 87.5 108.5 88.8431 108.5 90.5V98.5C108.5 100.157 107.157 101.5 105.5 101.5H79.7198C71.3141 101.5 64.5 94.6859 64.5 86.2802V70.75Z" fill="white"/>
<path d="M423.93 30.5986L423.818 42.0097C416.656 41.7129 411.034 43.2158 406.952 46.5185C402.907 49.8213 400.885 55.0908 400.885 62.3271V94H387.804V31.3222H399.771L400.885 41.7871C402.258 38.5215 404.781 35.8125 408.455 33.6601C412.166 31.4707 417.324 30.4502 423.93 30.5986Z" fill="white"/>
<path d="M342.326 94.668C336.24 94.668 331.249 92.998 327.353 89.6582C323.493 86.3184 321.563 81.8467 321.563 76.2432C321.563 70.6025 323.809 66.0195 328.299 62.4941C332.789 58.9316 339.135 56.8535 347.336 56.2598L361.697 55.1465V53.4209C361.697 45.0713 357.3 40.8965 348.505 40.8965C344.571 40.8965 341.324 41.8984 338.764 43.9023C336.203 45.9062 334.737 48.7822 334.366 52.5303H323.178C323.697 46.2959 326.091 41.082 330.358 36.8887C334.626 32.6953 340.786 30.5986 348.839 30.5986C356.595 30.5986 362.644 32.584 366.985 36.5547C371.364 40.4883 373.554 46.1846 373.554 53.6436C373.554 57.1318 373.572 61.585 373.609 67.0029C373.646 72.3838 373.665 75.334 373.665 75.8535C373.665 81.4941 375.261 84.2402 378.452 84.0918V94C376.782 94 375.502 93.9629 374.611 93.8887C368.154 93.2207 364.239 90.6045 362.866 86.04C361.122 88.5635 358.339 90.6416 354.517 92.2744C350.731 93.8701 346.668 94.668 342.326 94.668ZM344.831 84.6484C348.765 84.6484 352.346 83.5908 355.574 81.4756C358.84 79.3232 360.881 76.7812 361.697 73.8496V64.2197L349.284 65.3887C339.19 66.2422 334.144 69.6934 334.144 75.7422C334.144 78.4883 335.201 80.6592 337.316 82.2549C339.432 83.8506 341.937 84.6484 344.831 84.6484Z" fill="white"/>
<path d="M307.035 94.1113C300.207 94.1113 294.956 92.8682 291.282 90.3818C287.646 87.8584 285.827 82.9043 285.827 75.5195L285.938 41.3418H275.808V31.0996H285.938V8.5H298.296V31.0996H313.771V41.4531L298.018 41.3418V74.4062C298.018 77.5234 298.686 79.8057 300.021 81.2529C301.357 82.7002 303.695 83.4238 307.035 83.4238H314.327V94.1113H307.035Z" fill="white"/>
<path d="M234.115 94.668C228.029 94.668 223.038 92.998 219.142 89.6582C215.282 86.3184 213.353 81.8467 213.353 76.2432C213.353 70.6025 215.598 66.0195 220.088 62.4941C224.578 58.9316 230.924 56.8535 239.125 56.2598L253.486 55.1465V53.4209C253.486 45.0713 249.089 40.8965 240.294 40.8965C236.36 40.8965 233.113 41.8984 230.553 43.9023C227.992 45.9062 226.526 48.7822 226.155 52.5303H214.967C215.486 46.2959 217.88 41.082 222.147 36.8887C226.415 32.6953 232.575 30.5986 240.628 30.5986C248.384 30.5986 254.433 32.584 258.774 36.5547C263.153 40.4883 265.343 46.1846 265.343 53.6436C265.343 57.1318 265.361 61.585 265.398 67.0029C265.436 72.3838 265.454 75.334 265.454 75.8535C265.454 81.4941 267.05 84.2402 270.241 84.0918V94C268.571 94 267.291 93.9629 266.4 93.8887C259.943 93.2207 256.028 90.6045 254.655 86.04C252.911 88.5635 250.128 90.6416 246.306 92.2744C242.521 93.8701 238.457 94.668 234.115 94.668ZM236.62 84.6484C240.554 84.6484 244.135 83.5908 247.363 81.4756C250.629 79.3232 252.67 76.7812 253.486 73.8496V64.2197L241.073 65.3887C230.979 66.2422 225.933 69.6934 225.933 75.7422C225.933 78.4883 226.99 80.6592 229.105 82.2549C231.221 83.8506 233.726 84.6484 236.62 84.6484Z" fill="white"/>
<path d="M207.842 84.2031V94H205.114C199.808 94 195.132 91.9404 191.087 87.8213L189.25 86.04C181.791 92.126 173.126 95.1504 163.255 95.1133C151.083 95.1133 141.082 90.8828 133.252 82.4219C125.422 73.9609 121.507 63.5703 121.507 51.25C121.507 38.9297 125.422 28.5391 133.252 20.0781C141.082 11.6172 151.083 7.38672 163.255 7.38672C175.353 7.38672 185.335 11.6172 193.202 20.0781C201.069 28.5391 205.003 38.9297 205.003 51.25C205.003 61.418 202.146 70.4541 196.431 78.3584L198.936 81.0303C200.977 83.1455 203.481 84.2031 206.45 84.2031H207.842ZM163.255 83.0342C170.083 83.0342 176.021 81.1416 181.067 77.3564L167.597 63.2178L174.777 55.9258L187.858 69.6191C191.198 64.3125 192.887 58.1895 192.924 51.25C192.924 42.0469 190.196 34.4209 184.741 28.3721C179.323 22.2861 172.161 19.2432 163.255 19.2432C154.349 19.2432 147.131 22.2861 141.602 28.3721C136.109 34.4209 133.363 42.0469 133.363 51.25C133.363 60.3047 136.109 67.875 141.602 73.9609C147.131 80.0098 154.349 83.0342 163.255 83.0342Z" fill="white"/>
</svg>
